OxygenSans-Regular.ufo
<glyph name="numbersign" format="1">
  <advance width="1204"/>
  <unicode hex="0023"/>
  <outline>
    <contour>
      <point x="694" y="522" type="line"/>
      <point x="410" y="522" type="line"/>
      <point x="504" y="967" type="line"/>
      <point x="787" y="967" type="line"/>
    </contour>
    <contour>
      <point x="582" y="-20" type="line"/>
      <point x="707" y="-20" type="line"/>
      <point x="800" y="431" type="line"/>
      <point x="1008" y="431" type="line"/>
      <point x="1023" y="522" type="line"/>
      <point x="820" y="522" type="line"/>
      <point x="913" y="967" type="line"/>
      <point x="1104" y="967" type="line"/>
      <point x="1119" y="1058" type="line"/>
      <point x="931" y="1058" type="line"/>
      <point x="1013" y="1460" type="line"/>
      <point x="889" y="1460" type="line"/>
      <point x="806" y="1058" type="line"/>
      <point x="523" y="1058" type="line"/>
      <point x="605" y="1460" type="line"/>
      <point x="479" y="1460" type="line"/>
      <point x="397" y="1058" type="line"/>
      <point x="194" y="1058" type="line"/>
      <point x="181" y="967" type="line"/>
      <point x="378" y="967" type="line"/>
      <point x="285" y="522" type="line"/>
      <point x="98" y="522" type="line"/>
      <point x="85" y="431" type="line"/>
      <point x="267" y="431" type="line"/>
      <point x="174" y="-20" type="line"/>
      <point x="298" y="-20" type="line"/>
      <point x="392" y="431" type="line"/>
      <point x="674" y="431" type="line"/>
    </contour>
  </outline>
</glyph>
<glyph name="dollar" format="1">
  <advance width="1167.4576824"/>
  <unicode hex="0024"/>
  <outline>
    <contour>
      <point x="638" y="1735" type="line"/>
      <point x="572" y="1735" type="line"/>
      <point x="534" y="1404" type="line"/>
      <point x="691" y="1404" type="line"/>
    </contour>
    <contour>
      <point x="588" y="-278" type="line"/>
      <point x="654" y="-278" type="line"/>
      <point x="692" y="53" type="line"/>
      <point x="535" y="53" type="line"/>
    </contour>
    <component base="S"/>
  </outline>
</glyph>
<glyph name="plus" format="1">
  <advance width="1203"/>
  <unicode hex="002B"/>
  <outline>
    <contour>
      <point x="538" y="227" type="line"/>
      <point x="670" y="227" type="line"/>
      <point x="670" y="621" type="line"/>
      <point x="1043" y="621" type="line"/>
      <point x="1043" y="744" type="line"/>
      <point x="670" y="744" type="line"/>
      <point x="670" y="1133" type="line"/>
      <point x="539" y="1133" type="line"/>
      <point x="539" y="744" type="line"/>
      <point x="160" y="744" type="line"/>
      <point x="160" y="621" type="line"/>
      <point x="538" y="621" type="line"/>
    </contour>
  </outline>
</glyph>
<glyph name="comma" format="1">
  <advance width="481"/>
  <unicode hex="002C"/>
  <outline>
    <contour>
      <point x="137" y="-290" type="curve"/>
      <point x="234" y="-290" type="line"/>
      <point x="234" y="-290"/>
      <point x="351" y="152"/>
      <point x="351" y="181" type="curve"/>
      <point x="351" y="221" type="line"/>
      <point x="178" y="221" type="line"/>
      <point x="178" y="148"/>
      <point x="137" y="-290"/>
    </contour>
  </outline>
</glyph>
<glyph name="zero" format="1">
  <advance width="1204"/>
  <unicode hex="0030"/>
  <outline>
    <contour>
      <point x="607" y="106" type="curve" smooth="yes"/>
      <point x="405" y="106"/>
      <point x="279" y="315"/>
      <point x="279" y="731" type="curve" smooth="yes"/>
      <point x="278" y="1127"/>
      <point x="405" y="1345"/>
      <point x="607" y="1345" type="curve" smooth="yes"/>
      <point x="809" y="1345"/>
      <point x="925" y="1155"/>
      <point x="925" y="732" type="curve" smooth="yes"/>
      <point x="925" y="316"/>
      <point x="809" y="106"/>
    </contour>
    <contour>
      <point x="607" y="-29" type="curve" smooth="yes"/>
      <point x="950" y="-29"/>
      <point x="1090" y="293"/>
      <point x="1090" y="726" type="curve" smooth="yes"/>
      <point x="1090" y="1182"/>
      <point x="934" y="1480"/>
      <point x="607" y="1480" type="curve" smooth="yes"/>
      <point x="280" y="1480"/>
      <point x="114" y="1181"/>
      <point x="114" y="726" type="curve" smooth="yes"/>
      <point x="114" y="293"/>
      <point x="264" y="-29"/>
    </contour>
  </outline>
</glyph>
<glyph name="colon" format="1">
  <advance width="537"/>
  <unicode hex="003A"/>
  <outline>
    <contour>
      <point x="269" y="833" type="curve" smooth="yes"/>
      <point x="353" y="833"/>
      <point x="391" y="890"/>
      <point x="391" y="946" type="curve" smooth="yes"/>
      <point x="391" y="1001"/>
      <point x="353" y="1058"/>
      <point x="269" y="1058" type="curve" smooth="yes"/>
      <point x="185" y="1058"/>
      <point x="146" y="1001"/>
      <point x="146" y="946" type="curve" smooth="yes"/>
      <point x="146" y="890"/>
      <point x="186" y="833"/>
    </contour>
    <contour>
      <point x="269" y="-11" type="curve" smooth="yes"/>
      <point x="353" y="-11"/>
      <point x="391" y="46"/>
      <point x="391" y="101" type="curve" smooth="yes"/>
      <point x="391" y="157"/>
      <point x="353" y="213"/>
      <point x="269" y="213" type="curve" smooth="yes"/>
      <point x="185" y="213"/>
      <point x="146" y="157"/>
      <point x="146" y="101" type="curve" smooth="yes"/>
      <point x="146" y="46"/>
      <point x="186" y="-11"/>
    </contour>
  </outline>
</glyph>
<glyph name="S" format="1">
  <advance width="1167"/>
  <unicode hex="0053"/>
  <outline>
    <contour>
      <point x="222" y="39"/>
      <point x="405" y="-20"/>
      <point x="588" y="-20" type="curve" smooth="yes"/>
      <point x="829" y="-20"/>
      <point x="1068" y="82"/>
      <point x="1068" y="393" type="curve" smooth="yes"/>
      <point x="1068" y="641"/>
      <point x="925" y="719"/>
      <point x="716" y="799" type="curve" smooth="yes"/>
      <point x="486" y="889" type="line" smooth="yes"/>
      <point x="348" y="943"/>
      <point x="300" y="997"/>
      <point x="300" y="1121" type="curve" smooth="yes"/>
      <point x="300" y="1278"/>
      <point x="445" y="1341"/>
      <point x="608" y="1341" type="curve" smooth="yes"/>
      <point x="731" y="1341"/>
      <point x="865" y="1305"/>
      <point x="953" y="1244" type="curve"/>
      <point x="1017" y="1368" type="line"/>
      <point x="902" y="1439"/>
      <point x="748" y="1480"/>
      <point x="602" y="1480" type="curve" smooth="yes"/>
      <point x="360" y="1480"/>
      <point x="138" y="1369"/>
      <point x="138" y="1100" type="curve" smooth="yes"/>
      <point x="138" y="901"/>
      <point x="250" y="811"/>
      <point x="432" y="742" type="curve" smooth="yes"/>
      <point x="670" y="651" type="line" smooth="yes"/>
      <point x="853" y="583"/>
      <point x="907" y="530"/>
      <point x="907" y="387" type="curve" smooth="yes"/>
      <point x="907" y="198"/>
      <point x="765" y="120"/>
      <point x="591" y="120" type="curve" smooth="yes"/>
      <point x="442" y="120"/>
      <point x="270" y="176"/>
      <point x="142" y="269" type="curve"/>
      <point x="142" y="111" type="line"/>
    </contour>
  </outline>
</glyph>
<glyph name="Y" format="1">
  <advance width="1234"/>
  <unicode hex="0059"/>
  <outline>
    <contour>
      <point x="545" y="0" type="line"/>
      <point x="715" y="0" type="line"/>
      <point x="715" y="683" type="line"/>
      <point x="671" y="525" type="line"/>
      <point x="1184" y="1460" type="line"/>
      <point x="1010" y="1460" type="line"/>
      <point x="600" y="696" type="line"/>
      <point x="660" y="696" type="line"/>
      <point x="224" y="1460" type="line"/>
      <point x="50" y="1460" type="line"/>
      <point x="595" y="516" type="line"/>
      <point x="545" y="682" type="line"/>
    </contour>
  </outline>
</glyph>
<glyph name="bracketleft" format="1">
  <advance width="674"/>
  <unicode hex="005B"/>
  <outline>
    <contour>
      <point x="171" y="-255" type="line"/>
      <point x="171" y="1460" type="line"/>
      <point x="635" y="1460" type="line"/>
      <point x="635" y="1342" type="line"/>
      <point x="347" y="1342" type="line"/>
      <point x="347" y="-138" type="line"/>
      <point x="635" y="-138" type="line"/>
      <point x="635" y="-255" type="line"/>
    </contour>
  </outline>
</glyph>
<glyph name="e" format="1">
  <advance width="1068"/>
  <unicode hex="0065"/>
  <outline>
    <contour>
      <point x="585" y="-20" type="curve" smooth="yes"/>
      <point x="738" y="-20"/>
      <point x="844" y="15"/>
      <point x="942" y="73" type="curve"/>
      <point x="907" y="190" type="line"/>
      <point x="810" y="141"/>
      <point x="724" y="106"/>
      <point x="604" y="106" type="curve" smooth="yes"/>
      <point x="403" y="106"/>
      <point x="252" y="232"/>
      <point x="252" y="538" type="curve"/>
      <point x="205" y="503" type="line"/>
      <point x="968" y="503" type="line"/>
      <point x="968" y="503"/>
      <point x="974" y="561"/>
      <point x="974" y="587" type="curve" smooth="yes"/>
      <point x="974" y="891"/>
      <point x="835" y="1080"/>
      <point x="566" y="1080" type="curve" smooth="yes"/>
      <point x="292" y="1080"/>
      <point x="84" y="869"/>
      <point x="84" y="524" type="curve" smooth="yes"/>
      <point x="84" y="185"/>
      <point x="292" y="-20"/>
    </contour>
    <contour>
      <point x="256" y="574" type="line"/>
      <point x="264" y="807"/>
      <point x="389" y="953"/>
      <point x="570" y="953" type="curve" smooth="yes"/>
      <point x="748" y="953"/>
      <point x="837" y="821"/>
      <point x="835" y="568" type="curve"/>
      <point x="877" y="611" type="line"/>
      <point x="205" y="611" type="line"/>
    </contour>
  </outline>
</glyph>
<glyph name="n" format="1">
  <advance width="1133"/>
  <unicode hex="006E"/>
  <outline>
    <contour>
      <point x="132" y="0" type="line"/>
      <point x="298" y="0" type="line"/>
      <point x="298" y="590" type="line" smooth="yes"/>
      <point x="298" y="782"/>
      <point x="368" y="953"/>
      <point x="624" y="953" type="curve" smooth="yes"/>
      <point x="794" y="953"/>
      <point x="841" y="843"/>
      <point x="841" y="665" type="curve" smooth="yes"/>
      <point x="841" y="0" type="line"/>
      <point x="1007" y="0" type="line"/>
      <point x="1007" y="647" type="line" smooth="yes"/>
      <point x="1007" y="935"/>
      <point x="897" y="1080"/>
      <point x="653" y="1080" type="curve" smooth="yes"/>
      <point x="451" y="1080"/>
      <point x="327" y="988"/>
      <point x="259" y="854" type="curve"/>
      <point x="301" y="854" type="line"/>
      <point x="276" y="1058" type="line"/>
      <point x="132" y="1058" type="line"/>
    </contour>
  </outline>
</glyph>
<glyph name="o" format="1">
  <advance width="1165"/>
  <unicode hex="006F"/>
  <outline>
    <contour>
      <point x="582" y="106" type="curve" smooth="yes"/>
      <point x="361" y="106"/>
      <point x="254" y="286"/>
      <point x="254" y="527" type="curve" smooth="yes"/>
      <point x="254" y="774"/>
      <point x="362" y="953"/>
      <point x="582" y="953" type="curve" smooth="yes"/>
      <point x="808" y="953"/>
      <point x="911" y="773"/>
      <point x="911" y="526" type="curve" smooth="yes"/>
      <point x="911" y="285"/>
      <point x="809" y="106"/>
    </contour>
    <contour>
      <point x="582" y="-20" type="curve" smooth="yes"/>
      <point x="886" y="-20"/>
      <point x="1081" y="210"/>
      <point x="1081" y="528" type="curve" smooth="yes"/>
      <point x="1081" y="854"/>
      <point x="901" y="1080"/>
      <point x="582" y="1080" type="curve" smooth="yes"/>
      <point x="266" y="1080"/>
      <point x="84" y="854"/>
      <point x="84" y="528" type="curve" smooth="yes"/>
      <point x="84" y="210"/>
      <point x="270" y="-20"/>
    </contour>
  </outline>
</glyph>
<glyph name="t" format="1">
  <advance width="737"/>
  <unicode hex="0074"/>
  <outline>
    <contour>
      <point x="578" y="-8" type="curve" smooth="yes"/>
      <point x="647" y="-8" type="line"/>
      <point x="655" y="106" type="line"/>
      <point x="571" y="110" type="line" smooth="yes"/>
      <point x="395" y="117"/>
      <point x="362" y="146"/>
      <point x="362" y="317" type="curve" smooth="yes"/>
      <point x="362" y="991" type="line"/>
      <point x="327" y="953" type="line"/>
      <point x="642" y="953" type="line"/>
      <point x="642" y="1058" type="line"/>
      <point x="327" y="1058" type="line"/>
      <point x="362" y="1019" type="line"/>
      <point x="362" y="1348" type="line"/>
      <point x="229" y="1338" type="line"/>
      <point x="199" y="1029" type="line"/>
      <point x="243" y="1061" type="line"/>
      <point x="39" y="1047" type="line"/>
      <point x="35" y="953" type="line"/>
      <point x="233" y="953" type="line"/>
      <point x="198" y="992" type="line"/>
      <point x="198" y="317" type="line" smooth="yes"/>
      <point x="198" y="67"/>
      <point x="279" y="-8"/>
    </contour>
  </outline>
</glyph>
<glyph name="w" format="1">
  <advance width="1563"/>
  <unicode hex="0077"/>
  <outline>
    <contour>
      <point x="349" y="0" type="line"/>
      <point x="507" y="0" type="line"/>
      <point x="801" y="965" type="line"/>
      <point x="768" y="965" type="line"/>
      <point x="1079" y="0" type="line"/>
      <point x="1226" y="0" type="line"/>
      <point x="1511" y="1058" type="line"/>
      <point x="1359" y="1058" type="line"/>
      <point x="1132" y="143" type="line"/>
      <point x="1168" y="143" type="line"/>
      <point x="872" y="1058" type="line"/>
      <point x="695" y="1058" type="line"/>
      <point x="417" y="143" type="line"/>
      <point x="451" y="143" type="line"/>
      <point x="209" y="1058" type="line"/>
      <point x="52" y="1058" type="line"/>
    </contour>
  </outline>
</glyph>
<glyph name="x" format="1">
  <advance width="1036"/>
  <unicode hex="0078"/>
  <outline>
    <contour>
      <point x="34" y="0" type="line"/>
      <point x="201" y="0" type="line"/>
      <point x="530" y="447" type="line"/>
      <point x="592" y="497" type="line"/>
      <point x="998" y="1058" type="line"/>
      <point x="830" y="1058" type="line"/>
      <point x="517" y="614" type="line"/>
      <point x="448" y="569" type="line"/>
    </contour>
    <contour>
      <point x="817" y="0" type="line"/>
      <point x="1002" y="0" type="line"/>
      <point x="246" y="1058" type="line"/>
      <point x="61" y="1058" type="line"/>
    </contour>
  </outline>
</glyph>
<glyph name="yen" format="1">
  <advance width="1234"/>
  <unicode hex="00A5"/>
  <outline>
    <contour>
      <point x="1030" y="284" type="line"/>
      <point x="1030" y="388" type="line"/>
      <point x="667" y="388" type="line"/>
      <point x="667" y="575" type="line"/>
      <point x="1029" y="575" type="line"/>
      <point x="1029" y="679" type="line"/>
      <point x="223" y="679" type="line"/>
      <point x="223" y="575" type="line"/>
      <point x="603" y="575" type="line"/>
      <point x="603" y="388" type="line"/>
      <point x="221" y="388" type="line"/>
      <point x="221" y="284" type="line"/>
    </contour>
    <component base="Y"/>
  </outline>
</glyph>
<glyph name="ordmasculine" format="1">
  <advance width="844"/>
  <unicode hex="00BA"/>
  <outline>
    <contour>
      <point x="222" y="1105" type="curve" smooth="yes"/>
      <point x="222" y="1274"/>
      <point x="289" y="1376"/>
      <point x="421" y="1376" type="curve" smooth="yes"/>
      <point x="557" y="1376"/>
      <point x="627" y="1272"/>
      <point x="627" y="1102" type="curve" smooth="yes"/>
      <point x="627" y="937"/>
      <point x="561" y="839"/>
      <point x="421" y="839" type="curve" smooth="yes"/>
      <point x="288" y="839"/>
      <point x="222" y="938"/>
    </contour>
    <contour>
      <point x="757" y="1105" type="curve" smooth="yes"/>
      <point x="757" y="1324"/>
      <point x="645" y="1480"/>
      <point x="421" y="1480" type="curve" smooth="yes"/>
      <point x="203" y="1480"/>
      <point x="85" y="1321"/>
      <point x="85" y="1105" type="curve" smooth="yes"/>
      <point x="85" y="893"/>
      <point x="203" y="735"/>
      <point x="421" y="735" type="curve" smooth="yes"/>
      <point x="627" y="735"/>
      <point x="757" y="896"/>
    </contour>
  </outline>
</glyph>
<glyph name="onehalf" format="1">
  <advance width="1645"/>
  <unicode hex="00BD"/>
  <outline>
    <contour>
      <point x="83.0" y="598.0" type="line"/>
      <point x="514.0" y="598.0" type="line"/>
      <point x="514.0" y="707.0" type="line"/>
      <point x="375.0" y="707.0" type="line"/>
      <point x="375.0" y="1460.0" type="line"/>
      <point x="265.0" y="1460.0" type="line"/>
      <point x="223.0" y="1421.0"/>
      <point x="109.0" y="1372.0"/>
      <point x="73.0" y="1359.0" type="curve"/>
      <point x="73.0" y="1248.0" type="line"/>
      <point x="107.0" y="1260.0"/>
      <point x="200.0" y="1297.0"/>
      <point x="237.0" y="1320.0" type="curve"/>
      <point x="237.0" y="707.0" type="line"/>
      <point x="83.0" y="707.0" type="line"/>
    </contour>
    <contour>
      <point x="1023" y="-9" type="line"/>
      <point x="1544" y="-9" type="line"/>
      <point x="1550" y="102" type="line"/>
      <point x="1189" y="102" type="line"/>
      <point x="1360" y="265" type="line" smooth="yes"/>
      <point x="1484" y="383"/>
      <point x="1558" y="453"/>
      <point x="1558" y="591" type="curve" smooth="yes"/>
      <point x="1558" y="754"/>
      <point x="1423" y="841"/>
      <point x="1271" y="841" type="curve" smooth="yes"/>
      <point x="1156" y="841"/>
      <point x="1035" y="783"/>
      <point x="982" y="690" type="curve"/>
      <point x="1054" y="612" type="line"/>
      <point x="1112" y="690"/>
      <point x="1195" y="724"/>
      <point x="1273" y="724" type="curve" smooth="yes"/>
      <point x="1355" y="724"/>
      <point x="1426" y="679"/>
      <point x="1426" y="583" type="curve" smooth="yes"/>
      <point x="1426" y="514"/>
      <point x="1386" y="453"/>
      <point x="1271" y="340" type="curve" smooth="yes"/>
      <point x="1023" y="98" type="line"/>
    </contour>
    <contour>
      <point x="303" y="6" type="line"/>
      <point x="436" y="6" type="line"/>
      <point x="1344" y="1479" type="line"/>
      <point x="1211" y="1479" type="line"/>
    </contour>
  </outline>
</glyph>
<glyph name="threequarters" format="1">
  <advance width="1615"/>
  <unicode hex="00BE"/>
  <outline>
    <contour>
      <point x="349" y="0" type="line"/>
      <point x="481" y="0" type="line"/>
      <point x="1388" y="1480" type="line"/>
      <point x="1257" y="1480" type="line"/>
    </contour>
    <contour>
      <point x="1076.0" y="290.0" type="line"/>
      <point x="1314.0" y="673.0" type="line"/>
      <point x="1314.0" y="290.0" type="line"/>
    </contour>
    <contour>
      <point x="1315.0" y="0.0" type="line"/>
      <point x="1442.0" y="0.0" type="line"/>
      <point x="1442.0" y="186.0" type="line"/>
      <point x="1564.0" y="186.0" type="line"/>
      <point x="1556.0" y="290.0" type="line"/>
      <point x="1443.0" y="290.0" type="line"/>
      <point x="1443.0" y="836.0" type="line"/>
      <point x="1305.0" y="836.0" type="line"/>
      <point x="937.0" y="277.0" type="line"/>
      <point x="937.0" y="186.0" type="line"/>
      <point x="1315.0" y="186.0" type="line"/>
    </contour>
    <contour>
      <point x="350" y="615" type="curve" smooth="yes"/>
      <point x="495" y="615"/>
      <point x="611" y="710"/>
      <point x="611" y="867" type="curve" smooth="yes"/>
      <point x="611" y="964"/>
      <point x="553" y="1042"/>
      <point x="448" y="1073" type="curve"/>
      <point x="554" y="1099"/>
      <point x="592" y="1184"/>
      <point x="592" y="1246" type="curve" smooth="yes"/>
      <point x="592" y="1399"/>
      <point x="470" y="1475"/>
      <point x="345" y="1475" type="curve" smooth="yes"/>
      <point x="258" y="1475"/>
      <point x="143" y="1440"/>
      <point x="87" y="1380" type="curve"/>
      <point x="141" y="1293" type="line"/>
      <point x="181" y="1333"/>
      <point x="273" y="1362"/>
      <point x="340" y="1362" type="curve" smooth="yes"/>
      <point x="410" y="1362"/>
      <point x="461" y="1324"/>
      <point x="461" y="1244" type="curve" smooth="yes"/>
      <point x="461" y="1163"/>
      <point x="384" y="1122"/>
      <point x="284" y="1122" type="curve" smooth="yes"/>
      <point x="213" y="1122" type="line"/>
      <point x="213" y="1009" type="line"/>
      <point x="287" y="1009" type="line" smooth="yes"/>
      <point x="397" y="1009"/>
      <point x="480" y="963"/>
      <point x="480" y="871" type="curve" smooth="yes"/>
      <point x="480" y="774"/>
      <point x="417" y="728"/>
      <point x="338" y="728" type="curve" smooth="yes"/>
      <point x="276" y="728"/>
      <point x="187" y="754"/>
      <point x="138" y="798" type="curve"/>
      <point x="89" y="702" type="line"/>
      <point x="149" y="640"/>
      <point x="268" y="615"/>
    </contour>
  </outline>
</glyph>
<glyph name="eth" format="1">
  <advance width="1244"/>
  <unicode hex="00F0"/>
  <outline>
    <contour>
      <point x="620" y="-20" type="curve" smooth="yes"/>
      <point x="952" y="-20"/>
      <point x="1115" y="198"/>
      <point x="1115" y="480" type="curve" smooth="yes"/>
      <point x="1115" y="614"/>
      <point x="1081" y="752"/>
      <point x="1030" y="850" type="curve" smooth="yes"/>
      <point x="964" y="976"/>
      <point x="865" y="1104"/>
      <point x="673" y="1307" type="curve"/>
      <point x="926" y="1401" type="line"/>
      <point x="878" y="1506" type="line"/>
      <point x="589" y="1397" type="line"/>
      <point x="434" y="1548" type="line"/>
      <point x="249" y="1548" type="line"/>
      <point x="465" y="1348" type="line"/>
      <point x="241" y="1262" type="line"/>
      <point x="288" y="1155" type="line"/>
      <point x="544" y="1253" type="line"/>
      <point x="726" y="1077"/>
      <point x="826" y="946"/>
      <point x="879" y="848" type="curve"/>
      <point x="819" y="893"/>
      <point x="753" y="953"/>
      <point x="605" y="953" type="curve" smooth="yes"/>
      <point x="325" y="953"/>
      <point x="125" y="762"/>
      <point x="125" y="478" type="curve" smooth="yes"/>
      <point x="125" y="216"/>
      <point x="296" y="-20"/>
    </contour>
    <contour>
      <point x="626" y="106" type="curve" smooth="yes"/>
      <point x="395" y="106"/>
      <point x="284" y="287"/>
      <point x="284" y="477" type="curve" smooth="yes"/>
      <point x="284" y="680"/>
      <point x="408" y="833"/>
      <point x="620" y="833" type="curve" smooth="yes"/>
      <point x="844" y="833"/>
      <point x="967" y="664"/>
      <point x="967" y="486" type="curve" smooth="yes"/>
      <point x="967" y="256"/>
      <point x="851" y="106"/>
    </contour>
  </outline>
</glyph>
<glyph name="oslash" format="1">
  <advance width="1165"/>
  <unicode hex="00F8"/>
  <outline>
    <contour>
      <point x="293" y="-150" type="line"/>
      <point x="1018" y="1179" type="line"/>
      <point x="947" y="1216" type="line"/>
      <point x="228" y="-113" type="line"/>
    </contour>
    <component base="o"/>
  </outline>
</glyph>
<glyph name="Hbar" format="1">
  <advance width="1567"/>
  <unicode hex="0126"/>
  <outline>
    <contour>
      <point x="230" y="0" type="line"/>
      <point x="230" y="1106" type="line"/>
      <point x="141" y="1106" type="line"/>
      <point x="141" y="1199" type="line"/>
      <point x="230" y="1199" type="line"/>
      <point x="230" y="1452" type="line"/>
      <point x="377" y="1452" type="line"/>
      <point x="377" y="1199" type="line"/>
      <point x="1205" y="1199" type="line"/>
      <point x="1205" y="1452" type="line"/>
      <point x="1352" y="1452" type="line"/>
      <point x="1352" y="1199" type="line"/>
      <point x="1441" y="1199" type="line"/>
      <point x="1441" y="1106" type="line"/>
      <point x="1352" y="1106" type="line"/>
      <point x="1352" y="0" type="line"/>
      <point x="1205" y="0" type="line"/>
      <point x="1205" y="680" type="line"/>
      <point x="377" y="680" type="line"/>
      <point x="377" y="0" type="line"/>
    </contour>
    <contour>
      <point x="377" y="818" type="line"/>
      <point x="1205" y="818" type="line"/>
      <point x="1205" y="1106" type="line"/>
      <point x="377" y="1106" type="line"/>
    </contour>
  </outline>
</glyph>
<glyph name="Eng" format="1">
  <advance width="1367"/>
  <unicode hex="014A"/>
  <outline>
    <contour>
      <point x="825" y="-316" type="curve" smooth="yes"/>
      <point x="794" y="-316"/>
      <point x="745" y="-314"/>
      <point x="607" y="-301" type="curve"/>
      <point x="585" y="-174" type="line"/>
      <point x="738" y="-183"/>
      <point x="748" y="-184"/>
      <point x="771" y="-184" type="curve" smooth="yes"/>
      <point x="1063" y="-184"/>
      <point x="1083" y="-109"/>
      <point x="1083" y="169" type="curve" smooth="yes"/>
      <point x="1083" y="980" type="line" smooth="yes"/>
      <point x="1083" y="1242"/>
      <point x="1009" y="1329"/>
      <point x="787" y="1329" type="curve" smooth="yes"/>
      <point x="553" y="1329"/>
      <point x="389" y="1196"/>
      <point x="295" y="1059" type="curve"/>
      <point x="295" y="0" type="line"/>
      <point x="158" y="0" type="line"/>
      <point x="155" y="1460" type="line"/>
      <point x="282" y="1460" type="line"/>
      <point x="298" y="1238" type="line"/>
      <point x="491" y="1441"/>
      <point x="664" y="1475"/>
      <point x="836" y="1475" type="curve" smooth="yes"/>
      <point x="1089" y="1475"/>
      <point x="1220" y="1305"/>
      <point x="1220" y="984" type="curve" smooth="yes"/>
      <point x="1220" y="161" type="line" smooth="yes"/>
      <point x="1220" y="-135"/>
      <point x="1171" y="-316"/>
    </contour>
  </outline>
</glyph>
<glyph name="uni02BC" format="1">
  <advance width="512"/>
  <unicode hex="02BC"/>
  <outline>
    <contour>
      <point x="137" y="1090" type="line"/>
      <point x="239" y="1090" type="line"/>
      <point x="387" y="1537" type="line"/>
      <point x="249" y="1537" type="line"/>
    </contour>
  </outline>
</glyph>
<glyph name="caron" format="1">
  <advance width="775"/>
  <unicode hex="02C7"/>
  <outline>
    <contour>
      <point x="276" y="1097" type="line"/>
      <point x="461" y="1097" type="line"/>
      <point x="646" y="1460" type="line"/>
      <point x="527" y="1460" type="line"/>
      <point x="366" y="1193" type="line"/>
      <point x="222" y="1460" type="line"/>
      <point x="104" y="1460" type="line"/>
    </contour>
  </outline>
</glyph>
<glyph name="breve" format="1">
  <advance width="736"/>
  <unicode hex="02D8"/>
  <outline>
    <contour>
      <point x="365" y="1227" type="curve" smooth="yes"/>
      <point x="490" y="1227"/>
      <point x="600" y="1294"/>
      <point x="600" y="1460" type="curve"/>
      <point x="498" y="1460" type="line"/>
      <point x="498" y="1363"/>
      <point x="433" y="1325"/>
      <point x="365" y="1325" type="curve" smooth="yes"/>
      <point x="297" y="1325"/>
      <point x="236" y="1363"/>
      <point x="236" y="1460" type="curve"/>
      <point x="134" y="1460" type="line"/>
      <point x="134" y="1294"/>
      <point x="241" y="1227"/>
    </contour>
  </outline>
</glyph>
<glyph name="Delta" format="1">
  <advance width="1474"/>
  <unicode hex="0394"/>
  <outline>
    <contour>
      <point x="122" y="0" type="line"/>
      <point x="661" y="1446" type="line"/>
      <point x="827" y="1446" type="line"/>
      <point x="1368" y="0" type="line"/>
    </contour>
    <contour>
      <point x="340" y="142" type="line"/>
      <point x="1154" y="142" type="line"/>
      <point x="744" y="1275" type="line"/>
    </contour>
  </outline>
</glyph>
<glyph name="Lambda" format="1">
  <advance width="1474"/>
  <unicode hex="039B"/>
  <outline>
    <contour>
      <point x="123" y="0" type="line"/>
      <point x="656" y="1446" type="line"/>
      <point x="833" y="1446" type="line"/>
      <point x="1368" y="0" type="line"/>
      <point x="1196" y="0" type="line"/>
      <point x="744" y="1270" type="line"/>
      <point x="299" y="0" type="line"/>
    </contour>
  </outline>
</glyph>
<glyph name="Sigma" format="1">
  <advance width="1143"/>
  <unicode hex="03A3"/>
  <outline>
    <contour>
      <point x="147" y="0" type="line"/>
      <point x="147" y="1433" type="line"/>
      <point x="1011" y="1433" type="line"/>
      <point x="1004" y="1299" type="line"/>
      <point x="305" y="1299" type="line"/>
      <point x="305" y="808" type="line"/>
      <point x="944" y="808" type="line"/>
      <point x="944" y="675" type="line"/>
      <point x="305" y="675" type="line"/>
      <point x="305" y="134" type="line"/>
      <point x="1009" y="134" type="line"/>
      <point x="1001" y="0" type="line"/>
    </contour>
  </outline>
</glyph>
<glyph name="uni0429" format="1">
  <advance width="1677"/>
  <unicode hex="0429"/>
  <outline>
    <contour>
      <point x="1439" y="-288" type="line"/>
      <point x="1590" y="-288" type="line"/>
      <point x="1590" y="155" type="line"/>
      <point x="1490" y="155" type="line"/>
      <point x="1490" y="1460" type="line"/>
      <point x="1339" y="1460" type="line"/>
      <point x="1339" y="140" type="line"/>
      <point x="915" y="140" type="line"/>
      <point x="915" y="1460" type="line"/>
      <point x="763" y="1460" type="line"/>
      <point x="763" y="140" type="line"/>
      <point x="348" y="140" type="line"/>
      <point x="348" y="1460" type="line"/>
      <point x="198" y="1460" type="line"/>
      <point x="198" y="0" type="line"/>
      <point x="1440" y="0" type="line"/>
    </contour>
  </outline>
</glyph>
<glyph name="uni0432" format="1">
  <advance width="1122"/>
  <unicode hex="0432"/>
  <outline>
    <contour>
      <point x="193" y="0" type="line"/>
      <point x="193" y="1055" type="line"/>
      <point x="640" y="1055" type="line" smooth="yes"/>
      <point x="914" y="1055"/>
      <point x="984" y="912"/>
      <point x="984" y="789" type="curve" smooth="yes"/>
      <point x="984" y="666"/>
      <point x="920" y="594"/>
      <point x="815" y="562" type="curve"/>
      <point x="980" y="517"/>
      <point x="1020" y="390"/>
      <point x="1020" y="301" type="curve" smooth="yes"/>
      <point x="1020" y="175"/>
      <point x="964" y="0"/>
      <point x="638" y="0" type="curve" smooth="yes"/>
    </contour>
    <contour>
      <point x="315" y="85" type="line"/>
      <point x="633" y="85" type="line" smooth="yes"/>
      <point x="867" y="85"/>
      <point x="900" y="183"/>
      <point x="900" y="301" type="curve" smooth="yes"/>
      <point x="900" y="393"/>
      <point x="899" y="506"/>
      <point x="682" y="506" type="curve" smooth="yes"/>
      <point x="315" y="506" type="line"/>
    </contour>
    <contour>
      <point x="315" y="596" type="line"/>
      <point x="677" y="596" type="line" smooth="yes"/>
      <point x="840" y="596"/>
      <point x="865" y="696"/>
      <point x="865" y="784" type="curve" smooth="yes"/>
      <point x="865" y="892"/>
      <point x="816" y="970"/>
      <point x="638" y="970" type="curve" smooth="yes"/>
      <point x="315" y="970" type="line"/>
    </contour>
  </outline>
</glyph>
<glyph name="uni043A" format="1">
  <advance width="1200"/>
  <unicode hex="043A"/>
  <outline>
    <contour>
      <point x="208" y="0" type="line"/>
      <point x="208" y="1055" type="line"/>
      <point x="337" y="1055" type="line"/>
      <point x="337" y="547" type="line"/>
      <point x="804" y="1054" type="line"/>
      <point x="967" y="1056" type="line"/>
      <point x="475" y="528" type="line"/>
      <point x="1024" y="0" type="line"/>
      <point x="877" y="0" type="line"/>
      <point x="337" y="516" type="line"/>
      <point x="337" y="0" type="line"/>
    </contour>
  </outline>
</glyph>
<glyph name="uni0449" format="1">
  <advance width="1446"/>
  <unicode hex="0449"/>
  <outline>
    <contour>
      <point x="1203" y="-280" type="line"/>
      <point x="1214" y="0" type="line"/>
      <point x="210" y="0" type="line"/>
      <point x="210" y="1057" type="line"/>
      <point x="349" y="1057" type="line"/>
      <point x="349" y="77" type="line"/>
      <point x="696" y="77" type="line"/>
      <point x="696" y="1057" type="line"/>
      <point x="837" y="1057" type="line"/>
      <point x="837" y="77" type="line"/>
      <point x="1124" y="77" type="line"/>
      <point x="1124" y="1057" type="line"/>
      <point x="1265" y="1057" type="line"/>
      <point x="1265" y="134" type="line"/>
      <point x="1361" y="134" type="line"/>
      <point x="1361" y="-280" type="line"/>
    </contour>
  </outline>
</glyph>
<glyph name="uni044C" format="1">
  <advance width="1018"/>
  <unicode hex="044C"/>
  <outline>
    <contour>
      <point x="193" y="0" type="line"/>
      <point x="193" y="1058" type="line"/>
      <point x="315" y="1058" type="line"/>
      <point x="315" y="668" type="line"/>
      <point x="568" y="668" type="line" smooth="yes"/>
      <point x="871" y="668"/>
      <point x="935" y="487"/>
      <point x="935" y="345" type="curve" smooth="yes"/>
      <point x="935" y="192"/>
      <point x="870" y="0"/>
      <point x="570" y="0" type="curve" smooth="yes"/>
    </contour>
    <contour>
      <point x="314" y="85" type="line"/>
      <point x="574" y="85" type="line" smooth="yes"/>
      <point x="730" y="85"/>
      <point x="819" y="166"/>
      <point x="819" y="347" type="curve" smooth="yes"/>
      <point x="819" y="503"/>
      <point x="728" y="576"/>
      <point x="577" y="576" type="curve" smooth="yes"/>
      <point x="314" y="576" type="line"/>
    </contour>
  </outline>
</glyph>
<glyph name="uni044F" format="1">
  <advance width="1136"/>
  <unicode hex="044F"/>
  <outline>
    <contour>
      <point x="181" y="0" type="line"/>
      <point x="381" y="442" type="line"/>
      <point x="186" y="490"/>
      <point x="124" y="645"/>
      <point x="124" y="755" type="curve" smooth="yes"/>
      <point x="124" y="896"/>
      <point x="218" y="1058"/>
      <point x="489" y="1058" type="curve" smooth="yes"/>
      <point x="944" y="1058" type="line"/>
      <point x="944" y="0" type="line"/>
      <point x="822" y="0" type="line"/>
      <point x="822" y="435" type="line"/>
      <point x="504" y="435" type="line"/>
      <point x="310" y="0" type="line"/>
    </contour>
    <contour>
      <point x="510" y="524" type="curve" smooth="yes"/>
      <point x="822" y="524" type="line"/>
      <point x="822" y="972" type="line"/>
      <point x="489" y="972" type="line" smooth="yes"/>
      <point x="278" y="972"/>
      <point x="241" y="854"/>
      <point x="241" y="748" type="curve" smooth="yes"/>
      <point x="241" y="613"/>
      <point x="336" y="524"/>
    </contour>
  </outline>
</glyph>
<glyph name="uni0452" format="1">
  <advance width="1334"/>
  <unicode hex="0452"/>
  <outline>
    <contour>
      <point x="794" y="-280" type="line"/>
      <point x="783" y="-152" type="line"/>
      <point x="819" y="-152" type="line" smooth="yes"/>
      <point x="996" y="-152"/>
      <point x="1018" y="-117"/>
      <point x="1018" y="95" type="curve" smooth="yes"/>
      <point x="1018" y="355" type="line" smooth="yes"/>
      <point x="1018" y="599"/>
      <point x="985" y="724"/>
      <point x="791" y="724" type="curve" smooth="yes"/>
      <point x="614" y="724"/>
      <point x="472" y="585"/>
      <point x="444" y="479" type="curve"/>
      <point x="444" y="0" type="line"/>
      <point x="294" y="0" type="line"/>
      <point x="294" y="1072" type="line"/>
      <point x="201" y="1072" type="line"/>
      <point x="201" y="1173" type="line"/>
      <point x="294" y="1173" type="line"/>
      <point x="294" y="1465" type="line"/>
      <point x="444" y="1465" type="line"/>
      <point x="444" y="1173" type="line"/>
      <point x="861" y="1173" type="line"/>
      <point x="861" y="1072" type="line"/>
      <point x="444" y="1072" type="line"/>
      <point x="444" y="671" type="line"/>
      <point x="535" y="789"/>
      <point x="652" y="860"/>
      <point x="806" y="860" type="curve" smooth="yes"/>
      <point x="1056" y="860"/>
      <point x="1170" y="707"/>
      <point x="1170" y="427" type="curve" smooth="yes"/>
      <point x="1170" y="147" type="line" smooth="yes"/>
      <point x="1170" y="-153"/>
      <point x="1149" y="-280"/>
      <point x="860" y="-280" type="curve" smooth="yes"/>
    </contour>
  </outline>
</glyph>
<glyph name="dagger" format="1">
  <advance width="911"/>
  <unicode hex="2020"/>
  <outline>
    <contour>
      <point x="400" y="118" type="line"/>
      <point x="509" y="118" type="line"/>
      <point x="509" y="988" type="line"/>
      <point x="800" y="988" type="line"/>
      <point x="800" y="1087" type="line"/>
      <point x="507" y="1087" type="line"/>
      <point x="507" y="1460" type="line"/>
      <point x="400" y="1460" type="line"/>
      <point x="400" y="1087" type="line"/>
      <point x="113" y="1087" type="line"/>
      <point x="113" y="988" type="line"/>
      <point x="400" y="988" type="line"/>
    </contour>
  </outline>
</glyph>
<glyph name="ellipsis" format="1">
  <advance width="1448"/>
  <unicode hex="2026"/>
  <outline>
    <contour>
      <point x="244" y="-12" type="curve" smooth="yes"/>
      <point x="158" y="-12"/>
      <point x="114" y="53"/>
      <point x="114" y="117" type="curve" smooth="yes"/>
      <point x="114" y="181"/>
      <point x="157" y="245"/>
      <point x="244" y="245" type="curve" smooth="yes"/>
      <point x="331" y="245"/>
      <point x="373" y="181"/>
      <point x="373" y="117" type="curve" smooth="yes"/>
      <point x="373" y="53"/>
      <point x="331" y="-12"/>
    </contour>
    <contour>
      <point x="725" y="-12" type="curve" smooth="yes"/>
      <point x="639" y="-12"/>
      <point x="596" y="53"/>
      <point x="596" y="117" type="curve" smooth="yes"/>
      <point x="596" y="181"/>
      <point x="638" y="245"/>
      <point x="725" y="245" type="curve" smooth="yes"/>
      <point x="812" y="245"/>
      <point x="855" y="181"/>
      <point x="855" y="117" type="curve" smooth="yes"/>
      <point x="855" y="53"/>
      <point x="812" y="-12"/>
    </contour>
    <contour>
      <point x="1206" y="-12" type="curve" smooth="yes"/>
      <point x="1120" y="-12"/>
      <point x="1076" y="53"/>
      <point x="1076" y="117" type="curve" smooth="yes"/>
      <point x="1076" y="181"/>
      <point x="1119" y="245"/>
      <point x="1206" y="245" type="curve" smooth="yes"/>
      <point x="1293" y="245"/>
      <point x="1336" y="181"/>
      <point x="1336" y="117" type="curve" smooth="yes"/>
      <point x="1336" y="53"/>
      <point x="1293" y="-12"/>
    </contour>
  </outline>
</glyph>
<glyph name="perthousand" format="1">
  <advance width="2278"/>
  <unicode hex="2030"/>
  <outline>
    <contour>
      <point x="408" y="895" type="curve" smooth="yes"/>
      <point x="516" y="895"/>
      <point x="569" y="1012"/>
      <point x="569" y="1147" type="curve" smooth="yes"/>
      <point x="569" y="1290"/>
      <point x="516" y="1401"/>
      <point x="404" y="1401" type="curve" smooth="yes"/>
      <point x="294" y="1401"/>
      <point x="242" y="1284"/>
      <point x="242" y="1149" type="curve" smooth="yes"/>
      <point x="242" y="1006"/>
      <point x="295" y="895"/>
    </contour>
    <contour>
      <point x="404" y="775" type="curve" smooth="yes"/>
      <point x="219" y="775"/>
      <point x="116" y="925"/>
      <point x="116" y="1149" type="curve" smooth="yes"/>
      <point x="116" y="1362"/>
      <point x="219" y="1518"/>
      <point x="406" y="1518" type="curve" smooth="yes"/>
      <point x="595" y="1518"/>
      <point x="694" y="1373"/>
      <point x="694" y="1145" type="curve" smooth="yes"/>
      <point x="694" y="934"/>
      <point x="588" y="775"/>
    </contour>
    <contour>
      <point x="263" y="-21" type="line"/>
      <point x="1097" y="1507" type="line"/>
      <point x="1250" y="1507" type="line"/>
      <point x="395" y="-21" type="line"/>
    </contour>
    <contour>
      <point x="1088" y="91" type="curve" smooth="yes"/>
      <point x="1217" y="91"/>
      <point x="1282" y="211"/>
      <point x="1282" y="345" type="curve" smooth="yes"/>
      <point x="1282" y="487"/>
      <point x="1221" y="594"/>
      <point x="1087" y="594" type="curve" smooth="yes"/>
      <point x="958" y="594"/>
      <point x="895" y="480"/>
      <point x="895" y="345" type="curve" smooth="yes"/>
      <point x="895" y="202"/>
      <point x="959" y="91"/>
    </contour>
    <contour>
      <point x="1086" y="-29" type="curve" smooth="yes"/>
      <point x="872" y="-29"/>
      <point x="767" y="121"/>
      <point x="767" y="345" type="curve" smooth="yes"/>
      <point x="767" y="557"/>
      <point x="870" y="716"/>
      <point x="1088" y="716" type="curve" smooth="yes"/>
      <point x="1306" y="716"/>
      <point x="1407" y="568"/>
      <point x="1407" y="342" type="curve" smooth="yes"/>
      <point x="1407" y="131"/>
      <point x="1301" y="-29"/>
    </contour>
    <contour>
      <point x="1843" y="91" type="curve" smooth="yes"/>
      <point x="1972" y="91"/>
      <point x="2037" y="209"/>
      <point x="2037" y="345" type="curve" smooth="yes"/>
      <point x="2037" y="484"/>
      <point x="1968" y="594"/>
      <point x="1840" y="594" type="curve" smooth="yes"/>
      <point x="1707" y="594"/>
      <point x="1644" y="480"/>
      <point x="1644" y="345" type="curve" smooth="yes"/>
      <point x="1644" y="202"/>
      <point x="1709" y="91"/>
    </contour>
    <contour>
      <point x="1837" y="-29" type="curve" smooth="yes"/>
      <point x="1625" y="-29"/>
      <point x="1520" y="121"/>
      <point x="1520" y="345" type="curve" smooth="yes"/>
      <point x="1520" y="557"/>
      <point x="1626" y="716"/>
      <point x="1843" y="716" type="curve" smooth="yes"/>
      <point x="2057" y="716"/>
      <point x="2159" y="572"/>
      <point x="2159" y="342" type="curve" smooth="yes"/>
      <point x="2159" y="131"/>
      <point x="2052" y="-29"/>
    </contour>
  </outline>
</glyph>
<glyph name="infinity" format="1">
  <advance width="1735"/>
  <unicode hex="221E"/>
  <outline>
    <contour>
      <point x="462" y="247" type="curve" smooth="yes"/>
      <point x="241" y="247"/>
      <point x="113" y="429"/>
      <point x="113" y="642" type="curve" smooth="yes"/>
      <point x="113" y="836"/>
      <point x="266" y="990"/>
      <point x="458" y="990" type="curve" smooth="yes"/>
      <point x="625" y="990"/>
      <point x="748" y="884"/>
      <point x="868" y="725" type="curve"/>
      <point x="980" y="879"/>
      <point x="1103" y="990"/>
      <point x="1273" y="990" type="curve" smooth="yes"/>
      <point x="1494" y="990"/>
      <point x="1617" y="837"/>
      <point x="1617" y="625" type="curve" smooth="yes"/>
      <point x="1617" y="402"/>
      <point x="1465" y="247"/>
      <point x="1271" y="247" type="curve" smooth="yes"/>
      <point x="1123" y="247"/>
      <point x="1001" y="334"/>
      <point x="868" y="511" type="curve"/>
      <point x="751" y="357"/>
      <point x="625" y="247"/>
    </contour>
    <contour>
      <point x="464" y="371" type="curve" smooth="yes"/>
      <point x="593" y="371"/>
      <point x="706" y="485"/>
      <point x="798" y="620" type="curve"/>
      <point x="707" y="763"/>
      <point x="597" y="870"/>
      <point x="457" y="870" type="curve" smooth="yes"/>
      <point x="313" y="870"/>
      <point x="224" y="756"/>
      <point x="224" y="622" type="curve" smooth="yes"/>
      <point x="224" y="496"/>
      <point x="320" y="371"/>
    </contour>
    <contour>
      <point x="1273" y="371" type="curve" smooth="yes"/>
      <point x="1425" y="371"/>
      <point x="1497" y="493"/>
      <point x="1497" y="647" type="curve" smooth="yes"/>
      <point x="1497" y="768"/>
      <point x="1402" y="870"/>
      <point x="1269" y="870" type="curve" smooth="yes"/>
      <point x="1134" y="870"/>
      <point x="1025" y="750"/>
      <point x="938" y="622" type="curve"/>
      <point x="1058" y="458"/>
      <point x="1149" y="371"/>
    </contour>
  </outline>
</glyph>
